<svg xmlns="http://www.w3.org/2000/svg" version="1.1" xmlns:xlink="http://www.w3.org/1999/xlink" width="50" height="50"><svg width="50" height="50" viewBox="0 0 50 50" fill="none" xmlns="http://www.w3.org/2000/svg">
<rect width="50" height="50" rx="25" fill="#3E266A"></rect>
<path d="M36.9382 36.5002L36.1962 32.3209C35.9943 31.1979 34.965 30.134 33.8511 29.8994L33.2536 29.7721V20.5297C33.2527 13.6243 29.6009 11 25.0952 11C20.5895 11 16.9376 13.6252 16.9376 20.5297V29.7275L16.1229 29.8985C15.0071 30.1331 13.9778 31.197 13.7777 32.3191L13.0339 36.4993C12.9293 37.0867 13.0685 37.6441 13.4267 38.0715C13.785 38.498 14.3097 38.7344 14.9053 38.7344H35.0668C35.6624 38.7344 36.1862 38.498 36.5454 38.0715C36.9009 37.6441 37.0428 37.0876 36.9382 36.5002ZM35.8479 37.4886C35.6679 37.705 35.3887 37.8251 35.0677 37.8251H31.174V35.5708C31.174 35.3199 30.9703 35.1162 30.7193 35.1162C30.4684 35.1162 30.2647 35.3199 30.2647 35.5708V37.8251H19.7074V35.5708C19.7074 35.3199 19.5037 35.1162 19.2528 35.1162C19.0018 35.1162 18.7981 35.3199 18.7981 35.5708V37.8251H14.9044C14.5825 37.8251 14.3042 37.705 14.1224 37.4886C13.9405 37.2713 13.8714 36.9776 13.9278 36.6602L14.6716 32.481C14.8062 31.7217 15.5564 30.946 16.3093 30.7905L19.1455 30.1922L20.2848 29.9521L20.6995 30.1922L23.7994 31.9872C23.8694 32.0281 23.9485 32.0463 24.0267 32.0463C24.0713 32.0463 24.1158 32.0408 24.1595 32.0272C24.2795 31.9899 24.3795 31.9035 24.435 31.7917L24.9851 30.6678L25.5344 31.7917C25.5908 31.9035 25.6899 31.9899 25.8108 32.0272C25.8545 32.0408 25.899 32.0463 25.9436 32.0463C26.0227 32.0463 26.1009 32.0272 26.1709 31.9872L29.2708 30.1922L29.6854 29.9521L30.8248 30.1922L33.661 30.7905C34.4139 30.9487 35.1614 31.7217 35.2987 32.481L36.0425 36.6602C36.0998 36.9757 36.0298 37.2713 35.8479 37.4886ZM19.3701 20.9916C19.4737 20.9616 19.5801 20.9844 19.6865 21.0453V20.7534H25.9336L26.5019 17.3525V20.8898H30.2865V21.0462C30.3902 20.9862 30.4975 20.9626 30.6029 20.9926C30.9503 21.0953 31.1022 21.73 30.9421 22.4102C30.7866 23.0713 30.0019 23.5278 29.6618 23.4577C28.9989 25.611 26.691 28.0989 24.987 28.0989C23.2347 28.0989 20.9896 25.6683 20.3221 23.4577C19.9811 23.5341 19.19 23.0758 19.0336 22.4102C18.8709 21.7291 19.0218 21.0953 19.3701 20.9916ZM29.2108 29.1756L28.9434 29.3301L28.356 29.6711L27.4567 30.1913L26.1391 30.9533L25.7663 30.1913L25.5535 29.7548L26.3991 29.2656L26.9966 28.92L27.584 28.579L28.6261 27.9771L29.0735 28.8937L29.2108 29.1756ZM21.3451 27.9771L22.3872 28.579L22.9755 28.92L23.573 29.2656L24.4186 29.7548L24.2049 30.1913L23.8321 30.9533L22.5145 30.1913L21.6152 29.6711L21.0269 29.3301L20.7595 29.1756L20.8977 28.8919L21.3451 27.9771Z" fill="white"></path>
</svg><style>@media (prefers-color-scheme: light) { :root { filter: none; } }
@media (prefers-color-scheme: dark) { :root { filter: none; } }
</style></svg>