<!DOCTYPE svg PUBLIC "-//W3C//DTD SVG 1.1//EN" "http://www.w3.org/Graphics/SVG/1.1/DTD/svg11.dtd">
<!-- Uploaded to: SVG Repo, www.svgrepo.com, Transformed by: SVG Repo Mixer Tools -->
<svg height="64px" width="64px" version="1.1" id="_x32_" xmlns="http://www.w3.org/2000/svg" xmlns:xlink="http://www.w3.org/1999/xlink" viewBox="0 0 512 512" xml:space="preserve" fill="#000000">
<g id="SVGRepo_bgCarrier" stroke-width="0"/>
<g id="SVGRepo_tracerCarrier" stroke-linecap="round" stroke-linejoin="round"/>
<g id="SVGRepo_iconCarrier"> <style type="text/css"> .st0{fill:#ffffff;} </style> <g> <path class="st0" d="M426.571,409.59c-9.473-18.274-24.319-30.186-39.019-38.38c-14.71-8.204-29.529-12.902-39.463-16.628 c-7.819-2.916-17.642-7.452-25.01-12.279c-3.7-2.387-6.762-4.886-8.578-6.941c-0.034-0.043-0.052-0.085-0.094-0.128 c4.119,0,9.662,0,16.534,0c15.46,0,37.255,0,62.589,0h9.72l-2.157-9.483c-3.675-16.124-4.827-32.794-4.827-52.808 c-0.008-29.965,2.601-67.262,2.61-120.053c0.077-53.184-20.96-91.965-49.389-116.762C321.041,11.298,285.696,0.043,256.005,0 c-29.691,0.043-65.045,11.298-93.474,36.12c-28.438,24.789-49.474,63.57-49.406,116.736v0.008c0,0.026,0.009,0.068,0.009,0.077 c0,52.791,2.609,90.08,2.6,120.052c0,19.988-1.142,36.65-4.818,52.757l-2.166,9.483h9.721c36.513,0,65.574,0,79.012,0 c-0.23,0.272-0.426,0.528-0.716,0.809c-3.172,3.283-8.885,7.206-14.999,10.514c-6.123,3.351-12.697,6.208-17.702,7.973 c-13.498,4.793-35.362,11.367-54.249,25.991c-9.431,7.333-18.138,16.781-24.422,28.975c-6.284,12.176-10.054,27.048-10.054,44.826 c0,3.684,0.162,7.496,0.495,11.435c0.222,2.516,1.176,4.545,2.268,6.191c2.098,3.07,4.81,5.287,8.178,7.564 c5.9,3.906,13.984,7.666,24.319,11.367c30.945,11.034,82.056,21.112,145.404,21.121c51.46,0,94.897-6.676,125.936-15.076 c15.528-4.212,27.934-8.808,36.94-13.447c4.511-2.336,8.186-4.638,11.128-7.214c1.475-1.287,2.78-2.66,3.888-4.314 c1.1-1.646,2.056-3.675,2.277-6.191c0.324-3.931,0.486-7.726,0.486-11.401C436.668,436.569,432.882,421.741,426.571,409.59z M331.427,370.424c-5.79,6.626-14.999,13.976-27.534,19.605c-12.56,5.644-28.463,9.618-47.888,9.626 c-25.905-0.008-45.56-7.069-59.315-15.74c-6.881-4.332-12.262-9.082-16.116-13.491c-1.356-1.534-2.448-3.001-3.428-4.425 c6.412-2.754,13.405-6.275,19.698-10.36c4.511-2.95,8.646-6.123,11.988-9.78c1.671-1.842,3.138-3.812,4.289-6.071 c1.152-2.268,1.97-4.886,1.97-7.785c0-7.402,0-16.671,0-29.36v-2.976l-1.986-2.208c-5.09-5.636-12.671-12.962-19.68-22.495 c-6.907-9.388-13.055-20.695-15.477-33.904v-79.788H334.07v79.788c-2.421,13.208-8.578,24.515-15.485,33.904 c-7.01,9.533-14.59,16.858-19.68,22.495l-1.996,2.208v2.976c0,12.689,0,21.958,0,29.36c0,2.804,0.76,5.397,1.859,7.632 c1.944,3.939,4.818,7.026,8.102,9.908c4.936,4.29,10.999,8.025,17.301,11.333c3.582,1.876,7.197,3.547,10.727,5.073 C333.916,367.381,332.816,368.873,331.427,370.424z"/> </g> </g>
</svg>