<svg width="157" height="66" viewBox="0 0 157 66" fill="none" xmlns="http://www.w3.org/2000/svg">
<path d="M54.8627 53.6595L53.5341 46.1763C53.1727 44.1655 51.3295 42.2605 49.335 41.8404L48.2653 41.6125V25.0635C48.2636 12.699 41.7248 8 33.6571 8C25.5894 8 19.0505 12.7006 19.0505 25.0635V41.5327L17.5917 41.8388C15.5939 42.2589 13.7508 44.1639 13.3926 46.1731L12.0607 53.6579C11.8735 54.7097 12.1226 55.7078 12.7641 56.473C13.4056 57.2367 14.3451 57.66 15.4115 57.66H51.5119C52.5784 57.66 53.5162 57.2367 54.1594 56.473C54.796 55.7078 55.05 54.7113 54.8627 53.6595ZM52.9105 55.4294C52.5881 55.8169 52.0883 56.0318 51.5135 56.0318H44.5416V51.9955C44.5416 51.5461 44.1769 51.1814 43.7275 51.1814C43.2781 51.1814 42.9134 51.5461 42.9134 51.9955V56.0318H24.01V51.9955C24.01 51.5461 23.6453 51.1814 23.1959 51.1814C22.7466 51.1814 22.3818 51.5461 22.3818 51.9955V56.0318H15.4099C14.8335 56.0318 14.3353 55.8169 14.0097 55.4294C13.684 55.0402 13.5603 54.5143 13.6612 53.9461L14.9931 46.4629C15.2341 45.1033 16.5773 43.7145 17.9255 43.4361L23.0038 42.3647L25.0439 41.9349L25.7864 42.3647L31.3369 45.5788C31.4623 45.652 31.6039 45.6846 31.744 45.6846C31.8237 45.6846 31.9035 45.6748 31.9817 45.6504C32.1966 45.5837 32.3757 45.429 32.475 45.2287L33.4601 43.2163L34.4435 45.2287C34.5445 45.429 34.7219 45.5837 34.9385 45.6504C35.0166 45.6748 35.0964 45.6846 35.1762 45.6846C35.3179 45.6846 35.4579 45.6504 35.5833 45.5788L41.1338 42.3647L41.8762 41.9349L43.9164 42.3647L48.9947 43.4361C50.3429 43.7194 51.6812 45.1033 51.9271 46.4629L53.259 53.9461C53.3615 54.5111 53.2362 55.0402 52.9105 55.4294ZM23.406 25.8906C23.5916 25.8369 23.7821 25.8776 23.9726 25.9867V25.464H35.1583L36.1759 19.3746V25.7083H42.9525V25.9883C43.1381 25.8809 43.3302 25.8385 43.5191 25.8923C44.1411 26.0762 44.413 27.2127 44.1264 28.4306C43.848 29.6143 42.4428 30.4317 41.8339 30.3063C40.6469 34.1619 36.5146 38.6166 33.4633 38.6166C30.3258 38.6166 26.3058 34.2644 25.1107 30.3063C24.5001 30.4431 23.0836 29.6225 22.8035 28.4306C22.5121 27.2111 22.7824 26.0762 23.406 25.8906ZM41.0263 40.5444L40.5476 40.8212L39.4958 41.4318L37.8855 42.3631L35.5263 43.7275L34.8587 42.3631L34.4777 41.5816L35.9919 40.7056L37.0617 40.0869L38.1135 39.4763L39.9794 38.3984L40.7805 40.0397L41.0263 40.5444ZM26.9424 38.3984L28.8083 39.4763L29.8618 40.0869L30.9315 40.7056L32.4457 41.5816L32.0631 42.3631L31.3955 43.7275L29.0363 42.3631L27.426 41.4318L26.3725 40.8212L25.8939 40.5444L26.1413 40.0364L26.9424 38.3984Z" fill="white"/>
<path d="M78.2 49.88C77.98 49.94 77.63 50 77.15 50.06C76.69 50.12 76.23 50.15 75.77 50.15C75.31 50.15 74.9 50.11 74.54 50.03C74.2 49.97 73.91 49.85 73.67 49.67C73.43 49.49 73.25 49.24 73.13 48.92C73.01 48.6 72.95 48.18 72.95 47.66V31.82C73.17 31.78 73.52 31.73 74 31.67C74.48 31.59 74.94 31.55 75.38 31.55C75.84 31.55 76.24 31.59 76.58 31.67C76.94 31.73 77.24 31.85 77.48 32.03C77.72 32.21 77.9 32.46 78.02 32.78C78.14 33.1 78.2 33.52 78.2 34.04V49.88ZM87.7006 49.97C87.5006 50.03 87.1806 50.09 86.7406 50.15C86.3206 50.21 85.8806 50.24 85.4206 50.24C84.9806 50.24 84.5806 50.21 84.2206 50.15C83.8806 50.09 83.5906 49.97 83.3506 49.79C83.1106 49.61 82.9206 49.37 82.7806 49.07C82.6606 48.75 82.6006 48.34 82.6006 47.84V38.84C82.6006 38.38 82.6806 37.99 82.8406 37.67C83.0206 37.33 83.2706 37.03 83.5906 36.77C83.9106 36.51 84.3006 36.28 84.7606 36.08C85.2406 35.86 85.7506 35.67 86.2906 35.51C86.8306 35.35 87.3906 35.23 87.9706 35.15C88.5506 35.05 89.1306 35 89.7106 35C90.6706 35 91.4306 35.19 91.9906 35.57C92.5506 35.93 92.8306 36.53 92.8306 37.37C92.8306 37.65 92.7906 37.93 92.7106 38.21C92.6306 38.47 92.5306 38.71 92.4106 38.93C91.9906 38.93 91.5606 38.95 91.1206 38.99C90.6806 39.03 90.2506 39.09 89.8306 39.17C89.4106 39.25 89.0106 39.34 88.6306 39.44C88.2706 39.52 87.9606 39.62 87.7006 39.74V49.97ZM110.235 49.97C110.035 50.03 109.715 50.09 109.275 50.15C108.855 50.21 108.415 50.24 107.955 50.24C107.515 50.24 107.115 50.21 106.755 50.15C106.415 50.09 106.125 49.97 105.885 49.79C105.645 49.61 105.455 49.37 105.315 49.07C105.195 48.75 105.135 48.34 105.135 47.84V41.18C105.135 40.36 104.925 39.79 104.505 39.47C104.105 39.13 103.605 38.96 103.005 38.96C102.605 38.96 102.225 39.01 101.865 39.11C101.505 39.21 101.215 39.33 100.995 39.47V49.97C100.795 50.03 100.475 50.09 100.035 50.15C99.6146 50.21 99.1746 50.24 98.7146 50.24C98.2746 50.24 97.8746 50.21 97.5146 50.15C97.1746 50.09 96.8846 49.97 96.6446 49.79C96.4046 49.61 96.2146 49.37 96.0746 49.07C95.9546 48.75 95.8946 48.34 95.8946 47.84V30.44C96.1146 30.4 96.4346 30.35 96.8546 30.29C97.2946 30.21 97.7346 30.17 98.1746 30.17C98.6146 30.17 99.0046 30.2 99.3446 30.26C99.7046 30.32 100.005 30.44 100.245 30.62C100.485 30.8 100.665 31.05 100.785 31.37C100.925 31.67 100.995 32.07 100.995 32.57V35.51C101.255 35.41 101.645 35.3 102.165 35.18C102.705 35.04 103.295 34.97 103.935 34.97C105.915 34.97 107.455 35.47 108.555 36.47C109.675 37.45 110.235 38.92 110.235 40.88V49.97ZM114.283 35.63C114.483 35.57 114.793 35.51 115.213 35.45C115.653 35.39 116.103 35.36 116.563 35.36C117.003 35.36 117.393 35.39 117.733 35.45C118.093 35.51 118.393 35.63 118.633 35.81C118.873 35.99 119.053 36.24 119.173 36.56C119.313 36.86 119.383 37.26 119.383 37.76V44.21C119.383 45.03 119.583 45.62 119.983 45.98C120.383 46.32 120.963 46.49 121.723 46.49C122.183 46.49 122.553 46.45 122.833 46.37C123.133 46.29 123.363 46.21 123.523 46.13V35.63C123.723 35.57 124.033 35.51 124.453 35.45C124.893 35.39 125.343 35.36 125.803 35.36C126.243 35.36 126.633 35.39 126.973 35.45C127.333 35.51 127.633 35.63 127.873 35.81C128.113 35.99 128.293 36.24 128.413 36.56C128.553 36.86 128.623 37.26 128.623 37.76V46.88C128.623 47.88 128.203 48.63 127.363 49.13C126.663 49.57 125.823 49.9 124.843 50.12C123.883 50.36 122.833 50.48 121.693 50.48C120.613 50.48 119.613 50.36 118.693 50.12C117.793 49.88 117.013 49.51 116.353 49.01C115.693 48.51 115.183 47.87 114.823 47.09C114.463 46.29 114.283 45.33 114.283 44.21V35.63ZM139.634 34.97C140.454 34.97 141.254 35.09 142.034 35.33C142.834 35.55 143.524 35.89 144.104 36.35C144.704 35.95 145.374 35.62 146.114 35.36C146.874 35.1 147.784 34.97 148.844 34.97C149.604 34.97 150.344 35.07 151.064 35.27C151.804 35.47 152.454 35.79 153.014 36.23C153.594 36.65 154.054 37.22 154.394 37.94C154.734 38.64 154.904 39.5 154.904 40.52V49.97C154.704 50.03 154.384 50.09 153.944 50.15C153.524 50.21 153.084 50.24 152.624 50.24C152.184 50.24 151.784 50.21 151.424 50.15C151.084 50.09 150.794 49.97 150.554 49.79C150.314 49.61 150.124 49.37 149.984 49.07C149.864 48.75 149.804 48.34 149.804 47.84V40.67C149.804 40.07 149.634 39.64 149.294 39.38C148.954 39.1 148.494 38.96 147.914 38.96C147.634 38.96 147.334 39.03 147.014 39.17C146.694 39.29 146.454 39.42 146.294 39.56C146.314 39.64 146.324 39.72 146.324 39.8C146.324 39.86 146.324 39.92 146.324 39.98V49.97C146.104 50.03 145.774 50.09 145.334 50.15C144.914 50.21 144.484 50.24 144.044 50.24C143.604 50.24 143.204 50.21 142.844 50.15C142.504 50.09 142.214 49.97 141.974 49.79C141.734 49.61 141.544 49.37 141.404 49.07C141.284 48.75 141.224 48.34 141.224 47.84V40.67C141.224 40.07 141.034 39.64 140.654 39.38C140.294 39.1 139.854 38.96 139.334 38.96C138.974 38.96 138.664 39.02 138.404 39.14C138.144 39.24 137.924 39.34 137.744 39.44V49.97C137.544 50.03 137.224 50.09 136.784 50.15C136.364 50.21 135.924 50.24 135.464 50.24C135.024 50.24 134.624 50.21 134.264 50.15C133.924 50.09 133.634 49.97 133.394 49.79C133.154 49.61 132.964 49.37 132.824 49.07C132.704 48.75 132.644 48.34 132.644 47.84V38.78C132.644 38.24 132.754 37.81 132.974 37.49C133.214 37.17 133.534 36.87 133.934 36.59C134.614 36.11 135.454 35.72 136.454 35.42C137.474 35.12 138.534 34.97 139.634 34.97Z" fill="white"/>
</svg>
